<svg width="200" height="200" viewBox="0 0 200 200" fill="none" xmlns="http://www.w3.org/2000/svg">
<rect width="200" height="200" fill="#121837"/>
<path d="M120.717 75.3023C120.263 70.7189 118.312 67.1583 114.865 64.6205C111.418 62.0826 106.74 60.8136 100.831 60.8136C96.8156 60.8136 93.4255 61.3818 90.6603 62.5182C87.8952 63.6167 85.774 65.1508 84.2967 67.1205C82.8573 69.0902 82.1376 71.325 82.1376 73.825C82.0618 75.9083 82.4975 77.7265 83.4444 79.2796C84.4293 80.8326 85.774 82.1773 87.4785 83.3136C89.1831 84.4121 91.1528 85.378 93.3876 86.2114C95.6225 87.0068 98.0088 87.6886 100.547 88.2568L111.001 90.7568C116.077 91.8932 120.736 93.4083 124.979 95.3023C129.221 97.1962 132.895 99.5258 136.001 102.291C139.107 105.056 141.513 108.314 143.217 112.064C144.96 115.814 145.85 120.113 145.888 124.961C145.85 132.083 144.032 138.257 140.433 143.484C136.872 148.673 131.721 152.708 124.979 155.586C118.274 158.427 110.187 159.848 100.717 159.848C91.3232 159.848 83.1414 158.408 76.1717 155.53C69.2399 152.651 63.8232 148.389 59.9217 142.745C56.0581 137.064 54.0315 130.037 53.8422 121.666H77.649C77.9141 125.567 79.0315 128.825 81.0012 131.439C83.0088 134.014 85.6793 135.965 89.0126 137.291C92.3838 138.579 96.1906 139.223 100.433 139.223C104.6 139.223 108.217 138.617 111.285 137.405C114.391 136.192 116.797 134.507 118.501 132.348C120.206 130.189 121.058 127.708 121.058 124.905C121.058 122.291 120.282 120.094 118.729 118.314C117.213 116.533 114.979 115.018 112.024 113.768C109.107 112.518 105.528 111.382 101.285 110.359L88.6149 107.177C78.8043 104.791 71.0581 101.06 65.3762 95.9841C59.6944 90.9083 56.8725 84.0712 56.9103 75.4727C56.8725 68.4273 58.7475 62.272 62.5353 57.0068C66.3611 51.7417 71.6073 47.6318 78.274 44.6773C84.9406 41.7227 92.5164 40.2455 101.001 40.2455C109.638 40.2455 117.175 41.7227 123.615 44.6773C130.092 47.6318 135.13 51.7417 138.729 57.0068C142.327 62.272 144.183 68.3705 144.297 75.3023H120.717Z" fill="#DDEBED"/>
</svg>
